v 0.0 0.0 1.0
v 0.0 1.0 1.0
v 0.0 0.0 0.0
v 0.0 1.0 0.0
v 1.0 0.0 1.0
v 1.0 1.0 1.0
v 1.0 0.0 0.0
v 1.0 1.0 0.0

vt 0.375 0.000
vt 0.625 0.000
vt 0.625 0.250
vt 0.375 0.250
vt 0.625 0.500
vt 0.375 0.500
vt 0.625 0.750
vt 0.375 0.750
vt 0.625 1.000
vt 0.375 1.000
vt 0.125 0.500
vt 0.125 0.750
vt 0.875 0.500
vt 0.875 0.750

vn -1.0 0.0 0.0
vn 0.0 0.0 -1.0
vn 1.0 0.0 0.0
vn 0.0 0.0 1.0
vn 0.0 -1.0 0.0
vn 0.0 1.0 0.0

f 1/1/1 2/2/1 4/3/1
f 1/1/1 4/3/1 3/4/1
f 3/4/2 4/3/2 8/5/2
f 3/4/2 8/5/2 7/6/2
f 7/6/3 8/5/3 6/7/3
f 7/6/3 6/7/3 5/8/3
f 5/8/4 6/7/4 2/9/4
f 5/8/4 2/9/4 1/10/4
f 3/11/5 7/6/5 5/8/5
f 3/11/5 5/8/5 1/12/5
f 8/5/6 4/13/6 2/14/6
f 8/5/6 2/14/6 6/7/6
